<svg width="100" height="100" viewBox="0 0 100 100" fill="none" xmlns="http://www.w3.org/2000/svg">
<path fill-rule="evenodd" clip-rule="evenodd" d="M45.285 67.1873C48.0124 65.869 45.9679 66.2498 52.8614 66.2498C53.5015 66.2498 53.996 66.8743 54.8096 67.0311C54.5563 67.716 51.0116 69.7878 50.0472 70.1561C49.2374 69.8468 49.453 69.9168 48.7955 69.4971L46.4918 68.035C45.8499 67.6804 45.7151 67.6512 45.2848 67.1874L45.285 67.1873ZM58.706 66.0935C57.6716 65.8941 57.0615 65.0689 55.8919 64.8435C55.9706 64.1616 57.0527 62.5706 57.4379 61.897L59.1389 58.9061C60.1381 59.0987 60.5207 59.651 61.52 59.8436C61.4997 60.5036 60.5123 62.2764 60.1577 62.9227L58.7058 66.0935H58.706ZM38.5744 59.9998C39.3628 59.6188 40.096 59.2343 40.9555 58.906C41.6219 59.8149 44.1382 64.2846 44.2026 64.8434C43.6091 64.9578 42.4067 65.7059 41.6049 66.0934C40.6066 64.7316 39.3146 61.1955 38.5742 59.9996L38.5744 59.9998ZM43.3368 55.4684C46.6561 56.0266 46.72 56.2498 50.6966 56.2498C52.5771 56.2498 55.5243 55.8956 56.7578 55.4684C56.7578 57.6086 55.0118 59.8166 53.8523 61.8087C53.4458 62.5071 53.0591 63.283 52.6448 63.9059H47.4496L45.2112 59.8967C44.2349 58.3203 43.3368 57.3205 43.3368 55.4684ZM31.864 40.781V31.7185C34.3558 31.7185 37.2238 31.3095 39.5966 31.05C44.2873 30.5365 52.0242 28.9031 56.5742 27.6797C61.5384 26.3448 59.7874 26.4799 66.4044 30.0683C66.9515 30.3651 68.2308 30.903 68.2308 31.4062V41.2499C68.2308 43.4931 66.7471 46.5544 64.9561 48.2612C64.1833 48.9974 63.7907 49.3745 62.8743 50.0398C54.2722 56.2858 38.7976 54.5027 33.598 46.0921C32.7769 44.7638 31.864 42.6839 31.864 40.7812V40.781ZM71.6941 37.9685V33.4373C72.456 33.483 72.9837 33.7342 73.5525 34.1272C74.0551 34.4745 74.4573 35.0765 74.4674 35.624C74.4782 36.2153 74.0396 36.7705 73.5904 37.1498C72.8096 37.809 72.6819 37.6265 71.6941 37.9685ZM28.4005 33.4373V37.9685C27.0926 37.4691 25.8134 37.1603 25.7147 35.7606C25.6682 35.1005 25.8976 34.7092 26.494 34.2488C27.2212 33.6878 27.2485 33.631 28.4005 33.4373ZM62.819 15.6249C65.3332 15.6249 67.4876 16.0277 69.2628 17.2237C70.6606 18.1654 71.5292 19.0457 72.0918 20.4941C72.7423 22.1685 72.3435 28.6021 72.3435 30.9373C70.932 30.6999 71.3961 29.8498 69.8992 28.9517C67.8389 27.7156 62.5721 24.3748 60.0048 24.3748C58.6774 24.3748 53.86 25.808 52.3274 26.1768C46.8655 27.4915 41.394 28.5197 35.505 29.0343C34.2035 29.1479 31.8495 29.1672 30.8171 29.4006C28.8119 29.854 29.282 30.6799 27.7509 30.9373C27.7509 29.5831 27.7548 28.2288 27.7507 26.8746C27.7484 26.1581 27.7125 25.5946 27.8674 24.9275C28.1314 23.7913 28.839 22.0309 26.4521 22.0309C24.6582 22.0309 24.613 23.7001 24.5166 24.6964C24.3854 26.0537 24.2871 27.1317 24.2873 28.5933C24.2875 29.6777 24.7255 31.6855 24.1045 32.5239C23.4643 33.388 21.1333 34.9213 22.9047 37.56C23.1932 37.9897 23.832 38.6513 24.2557 38.9286C25.5125 39.7511 26.7194 40.1858 28.4001 40.4683C28.919 42.076 28.5567 43.0545 29.5611 45.2553C30.2378 46.7383 30.894 47.9765 32.0461 49.0864C33.2722 50.2677 34.0794 51.138 35.5948 52.1499C39.3722 54.6723 39.8727 53.1606 39.8727 56.0933C39.8727 56.5705 38.1594 57.2846 37.5788 57.5625C36.5142 58.0719 36.1434 58.364 34.758 58.6515C30.9158 59.4489 24.7494 60.5662 21.2822 61.5808C16.4959 62.9815 15.2965 65.8057 14.3474 69.2314L11.389 79.9085C10.9416 81.5234 10 83.7523 10 85.3121C10 87.9786 12.4054 89.9996 16.0612 89.9996H34.028C36.3167 89.9996 36.234 87.6558 34.028 87.6558H28.1834V76.5621C28.1834 75.1132 24.9363 75.1218 24.9363 76.406V87.656H17.7929C11.6889 87.656 13.4105 85.1133 14.4916 81.2106C14.8936 79.76 15.2521 78.4661 15.646 77.0441C16.4148 74.2692 17.2065 71.2845 17.9535 68.5535C18.8087 65.4262 20.5647 64.2779 24.5842 63.3397C25.9926 63.011 34.1997 61.1153 35.543 61.0937C35.9729 62.4256 36.7313 63.7756 37.4278 65.0458C38.1333 66.3323 38.378 67.838 40.3295 68.42C42.5652 69.0868 41.4417 67.7896 45.1206 70.4304L47.0768 71.6746C48.7273 72.704 51.2059 72.7418 52.8979 71.7457C53.2703 71.5263 53.4131 71.3714 53.7911 71.1405C54.2669 70.8498 54.3841 70.8476 54.8653 70.5096C55.5861 70.0032 56.0939 69.753 56.8098 69.2569C59.4249 67.4446 60.3191 70.177 62.6267 65.1745C63.1573 64.0244 64.411 62.298 64.5497 61.0938C65.5439 61.1099 66.3618 61.4046 67.3164 61.5967C68.1165 61.7576 69.189 61.9835 69.9884 62.168C73.3115 62.9351 77.3908 63.2489 79.8687 65.0363C81.3012 66.0696 81.6708 66.8406 82.1392 68.5536C82.8472 71.142 86.6295 83.5661 86.6295 85.9374C86.6295 87.4619 84.4279 87.6561 82.3 87.6561H75.1566V76.5624C75.1566 75.1135 71.9095 75.1221 71.9095 76.4063V87.6562H41.604C39.4613 87.6562 39.4613 90 41.604 90H84.0319C85.866 90 87.3676 89.4038 88.3162 88.7174C90.6619 87.0201 90.0534 85.0831 89.4618 82.9557C89.2149 82.0681 89.0279 81.223 88.7777 80.3245L85.854 69.6225C84.9011 66.1835 83.896 63.1469 79.1174 61.6725C76.0749 60.7337 69.0696 59.3971 65.5053 58.6854C64.5017 58.4849 60.2202 56.773 60.2202 56.0939C60.2202 53.2242 60.3443 54.9408 64.6021 52.2256C66.0626 51.2943 67.0137 50.3254 68.1718 49.1773C70.4897 46.8799 71.6928 43.5095 71.6928 40.469C74.625 40.2928 77.754 38.336 77.754 36.0939C77.754 33.2558 77.0792 33.9817 76.0176 32.5035C74.6663 30.6223 77.6627 22.3159 74.1453 17.7613C73.3584 16.7424 72.7273 16.2799 71.6431 15.5048C69.3961 13.8984 66.0967 13.1251 62.3848 13.1251C59.9563 13.1251 62.2148 13.6911 59.2662 12.4074C55.2039 10.6386 51.3786 10 46.3662 10C38.7155 10 32.1212 13.2301 28.3579 17.1597C27.5844 17.9672 27.6897 19.0368 29.1777 19.2993C30.6637 19.5613 32.2538 17.4456 33.2152 16.7575C36.9819 14.0612 42.0082 12.3429 47.4485 12.3423C48.1973 12.3423 48.6337 12.461 49.607 12.5044C51.7386 12.5995 53.9318 13.1289 55.6778 13.7475C56.8905 14.1773 57.7 14.5249 58.7651 15.1129C60.6872 16.1739 60.2569 15.6251 62.8179 15.6251L62.819 15.6249Z" fill="black"/>
</svg>
