<svg width="100" height="100" viewBox="0 0 100 100" fill="none" xmlns="http://www.w3.org/2000/svg">
<path fill-rule="evenodd" clip-rule="evenodd" d="M18.8715 87.656C16.2593 87.656 13.5999 88.0822 12.6755 85.8802C12.0278 84.3374 12.8799 78.7879 13.1547 76.7845L13.5401 73.263C13.5768 72.7256 13.4565 72.342 14.0256 72.342H19.6534L19.3489 77.9758C19.2267 79.4526 19.3135 81.4329 19.0509 83.7722C18.9764 84.4362 19.0648 85.114 19.029 85.7814C18.9898 86.5096 18.8717 86.7437 18.8717 87.6558L18.8715 87.656ZM89.9984 82.8361V84.8452C89.8797 86.2516 89.4615 87.5507 88.458 88.46C87.7734 89.0805 86.3923 89.9998 85.1525 89.9998H64.9869C63.8289 89.9998 63.7555 87.6558 64.9869 87.6558H78.587C78.587 84.7576 78.2687 81.7217 78.1174 78.9057C78.085 78.3035 78.1595 77.6367 78.1099 77.0379C78.0392 76.1837 78.034 74.5705 77.8958 73.6578C77.6228 71.8544 77.7445 70.0362 77.65 68.2781C77.6128 67.5887 77.5009 67.523 77.4855 66.7213C77.474 66.1143 77.4316 65.3559 77.6414 64.9892C78.2452 63.9343 79.994 64.1191 79.994 66.7163C80.4956 66.7052 85.1326 65.6258 85.4654 65.4662C85.4654 64.7831 85.3578 64.0613 85.2629 63.3246C84.5832 58.0525 84.8156 55.4365 78.8999 54.0588C78.6638 56.8934 77.2968 59.1776 75.4218 61.0517C72.8621 63.6104 70.2351 64.3723 66.5504 64.3723C63.2732 64.3723 60.112 62.4226 58.5113 60.3761C58.2655 60.062 58.152 59.9884 57.927 59.7101C56.7063 58.2006 55.7643 56.2201 55.7643 54.0588C53.5658 54.2416 50.9791 55.8811 50.2417 57.6016C49.8103 58.6074 49.0425 63.9488 49.0425 65.4662C49.3959 65.6358 54.1269 66.7041 54.6702 66.7163V65.7787C54.6702 64.7967 55.6605 64.0222 56.5767 64.6459C57.4587 65.246 57.0031 66.2858 57.012 67.4945C57.028 69.742 56.7342 71.9119 56.7086 74.2233C56.6993 75.0665 56.5641 75.1432 56.5412 75.9309C56.4438 79.2574 56.1193 82.7807 56.0835 86.0994C56.0747 86.9129 55.936 86.9804 55.9211 87.656C56.867 87.656 60.1133 87.3344 60.6924 88.0433C61.1861 88.6475 60.9321 90 59.9856 90H31.2222C29.6066 90 29.6066 87.656 31.2222 87.656H44.0407L42.9893 68.3927C42.2366 62.9036 45.1153 64.2518 45.2789 65.4789C45.4583 66.8241 45.3092 68.5773 45.604 69.8419H46.073C46.0961 68.8085 46.3997 67.0923 46.5139 66.0636C46.66 64.7494 46.7323 63.7101 46.9004 62.3872C47.7547 55.6645 47.9847 57.6362 48.4176 55.7782C47.3718 55.499 46.6881 54.3838 44.6658 54.2156C42.6018 58.1148 37.627 60.7786 32.9416 60.7786C24.3873 60.7786 21.7339 55.0843 20.4357 54.2156C14.843 55.518 14.9593 59.5219 14.4998 64.8459C14.3562 66.5109 14.0265 68.094 14.0265 69.8419H19.8104C20.1051 68.5773 19.956 66.8243 20.1355 65.4789C20.3065 64.1956 23.2461 62.9505 22.402 68.5256C22.2024 69.8437 22.0877 75.08 21.9996 76.7181C21.9627 77.405 21.8594 77.3713 21.8374 78.1187L21.5331 85.0026C21.5415 86.0836 21.3736 86.5222 21.3736 87.656H25.7508C27.3231 87.656 27.3231 90 25.7508 90H14.8081C13.5761 90 11.8361 88.9754 11.2736 88.2201C9.77828 86.2127 9.86778 83.8181 10.2076 81.3385L11.1666 72.765C11.707 68.5116 12.1742 62.2976 12.8167 58.4753C13.0052 57.3536 13.6765 56.0233 14.3586 55.1724L15.9375 53.6256C17.9637 51.951 23.9057 50.8008 26.6887 50.1526V47.1835C25.7752 46.572 24.7299 46.0321 23.9118 45.2714C23.0934 44.5104 22.3945 43.6992 21.7552 42.7394C20.4919 40.8429 19.654 38.7095 19.654 35.6201C18.6236 35.126 17.9215 35.1402 17.1111 34.2556C16.4498 33.5334 15.9022 32.4393 15.9022 31.2449C15.9022 30.425 16.2232 29.9195 16.5019 29.3441C16.7973 28.7339 16.697 24.11 16.9546 22.7647C19.4603 9.67876 36.5894 5.12978 45.4474 16.3996C49.7405 21.8615 48.2214 27.6308 48.8361 29.4199C49.0538 30.0536 49.3554 30.1825 49.3554 31.0886C49.3554 33.3817 47.8408 35.2908 45.7599 35.4641C45.7599 40.8268 42.9165 44.8843 38.5691 47.184V50.153C39.9119 50.2647 43.3135 51.2492 44.7211 51.6605C48.5581 52.7813 47.2923 52.2602 49.9807 54.0597L52.3756 52.5471C53.1738 52.1732 54.2824 51.8899 55.2314 51.6514C56.3581 51.3681 57.234 51.1529 58.3595 50.8717C59.2427 50.6511 60.5762 50.221 61.3923 50.153V47.184C60.6541 46.7935 59.73 46.2706 59.0934 45.7316C58.8738 45.5456 58.819 45.463 58.6001 45.287C56.8266 43.8625 55.3751 41.5671 54.8266 39.2143C53.1953 41.0902 53.991 45.1747 53.7857 46.4456C53.5929 47.6396 52.7812 48.7464 51.3874 48.7464C50.6705 48.7464 47.9935 48.1791 47.4563 47.9882C46.5175 47.6546 45.4472 46.5888 45.4472 45.3087C45.4472 43.0848 47.5021 39.0979 48.6342 37.3998C49.8305 35.6059 50.4918 35.8219 50.6189 34.2269C50.7177 32.986 51.2453 33.3443 50.8387 32.2792C50.5867 31.6192 50.4497 30.9883 50.4497 30.1512C50.4497 26.6359 50.5253 23.1228 51.8584 20.1521C52.6659 18.3525 53.8394 16.5179 55.2543 15.1085C56.6864 13.6819 58.3369 12.464 60.1926 11.6067C65.447 9.17961 71.249 9.54038 76.1962 12.5403C76.6182 12.7962 76.8264 12.9622 77.2159 13.2399C78.3149 14.0232 78.2386 15.6188 76.8684 15.6188C75.6674 15.6188 69.6878 9.74557 60.9521 13.9283C59.2943 14.7221 58.1769 15.6396 56.8978 16.9076C55.9236 17.8733 55.2869 18.8847 54.5798 20.0597C54.3207 20.4905 54.1967 20.7457 54.025 21.224C53.3036 23.234 52.9509 24.3795 52.9509 27.1823C53.6392 26.8521 54.4135 26.7231 55.0529 26.3136C56.8855 25.1395 60.2314 27.6561 64.0992 24.7317C64.7343 24.2515 64.9563 23.8523 65.4323 23.2514C66.491 21.9152 68.0862 21.8074 69.1245 23.2034C72.8369 28.1951 77.2596 25.4084 79.0787 26.0543C79.8587 26.3313 80.4491 26.8877 81.7142 27.1823C81.7142 25.6299 81.4011 23.6659 80.994 22.4332C80.6786 21.4779 79.3694 19.1948 79.3694 18.5878C79.3694 17.917 79.7769 17.3377 80.62 17.3377C82.4426 17.3377 84.0591 23.9703 84.0591 26.401C84.0591 27.9055 84.3068 30.4927 83.9089 31.8765C83.6534 32.7656 83.5548 32.7541 83.7673 33.5685C83.8763 33.9868 83.836 33.8158 83.8976 34.3757C84.0585 35.8344 86.1641 36.661 88.2818 42.0255C89.4866 45.078 89.7404 47.3932 86.0311 48.2176C84.3122 48.5997 82.3228 49.2791 81.1481 47.5941C80.6118 46.825 80.7758 46.033 80.7765 44.8402C80.7795 40.2626 80.7151 42.6175 79.9949 39.5271H79.6822C79.6238 40.2296 78.9448 41.5171 78.6197 42.0588C77.3296 44.2083 75.5421 45.9836 73.2731 47.184V50.153C74.9879 50.5525 76.6527 50.998 78.4004 51.4347C84.9124 53.0621 86.7674 54.6873 87.5266 61.5323L89.485 78.7951C89.6278 79.9194 89.8999 81.3656 90 82.8366L89.9984 82.8361ZM80.1501 69.2168C81.0794 69.0003 82.0416 68.8196 82.9655 68.5936C83.703 68.4131 85.0315 68.0287 85.7776 67.9667L87.0559 79.3464C87.8839 86.9159 88.4148 87.6562 81.0878 87.6562C81.0878 86.6803 80.9254 86.44 80.9263 85.4737C80.9272 84.4452 80.8495 83.9157 80.7833 83.1163L80.4614 76.25C80.4727 75.1958 80.3254 74.7657 80.301 73.9101C80.2527 72.2246 80.1496 70.953 80.1496 69.2171L80.1501 69.2168ZM53.5753 87.656C50.773 87.656 48.4831 88.0451 47.4224 86.1497C46.4679 84.4443 47.5218 78.7963 47.8193 76.1205C47.9629 74.8296 48.1412 73.4383 48.2747 72.0439C48.3864 70.8762 48.7294 69.1251 48.7294 67.9667C49.5094 68.0317 50.7709 68.4149 51.5562 68.5788L54.5135 69.2168L53.8872 80.623C53.9033 82.1101 53.5757 85.3573 53.5757 87.656H53.5753ZM67.3318 62.0287C62.506 62.0287 58.1087 57.8448 58.1087 53.4342C58.7286 53.3826 59.0521 53.1733 59.672 53.1217C59.672 56.0419 61.4815 58.5161 63.9708 59.7631C68.8239 62.1945 74.8354 58.7781 74.8354 53.1217C75.5611 53.1378 75.8806 53.3781 76.555 53.4342C75.8812 56.3256 75.8251 57.1887 73.6247 59.412C72.0818 60.9709 69.6076 62.0287 67.332 62.0287H67.3318ZM67.4881 58.122C65.8494 58.122 64.8097 57.7257 63.8509 56.7575C62.4134 55.306 62.1732 54.7949 62.1732 52.8089C62.1732 52.1202 63.2041 52.4235 63.6132 51.123C63.8167 50.4765 63.7365 49.0465 63.7365 48.1209C66.5345 48.7727 68.0096 48.7638 70.7709 48.1209C70.7709 49.2082 70.5766 51.3246 71.5224 52.0577C72.0234 52.4459 72.4905 52.1886 72.4905 52.8089C72.4905 55.8799 70.0738 58.122 67.4881 58.122ZM33.4096 58.2783C30.7763 58.2783 28.9985 58.1354 26.7753 56.7842C25.9495 56.2824 23.3384 54.5116 23.2486 53.434C23.8794 53.42 24.279 53.2456 24.8119 53.1215C25.4687 54.1019 26.8981 55.063 28.0272 55.6892C32.3405 58.081 38.1801 56.5014 40.4443 53.1215C40.9092 53.2297 41.7944 53.4132 42.1639 53.5903C40.377 56.2577 36.6696 58.2783 33.4098 58.2783H33.4096ZM27.6258 52.3401C29.5024 52.1841 29.189 49.5717 29.189 48.1209C31.9327 48.76 33.4277 48.772 36.2235 48.1209C36.2235 50.192 35.8868 51.9341 37.6304 52.3401C37.4444 53.0365 36.3617 53.4766 35.7559 53.7477C32.9533 55.0019 28.8789 54.2108 27.6258 52.3401ZM82.0262 38.12L82.7807 37.4659C84.2322 38.4585 86.7158 44.0801 86.7158 44.9955C86.7158 45.3534 86.6628 45.1772 86.5595 45.6206C85.7219 45.8156 84.0258 46.2457 83.1203 46.2457C83.1203 43.7558 83.7739 42.1632 82.284 38.7994C82.1705 38.5433 82.1087 38.3048 82.026 38.12H82.0262ZM51.3869 46.2457C50.5994 46.2457 47.7914 45.7671 47.7914 45.1518C47.7914 44.0557 50.4397 38.3381 51.6996 37.4949L52.454 38.149C52.2848 38.9726 51.6343 39.9671 51.4105 41.7377C51.1805 43.5567 51.3869 44.3358 51.3869 46.2459V46.2457ZM21.9983 35.1509V29.2127C22.7289 29.2127 24.6334 29.6815 27.1568 29.6815C31.3323 29.6815 37.4109 26.7896 38.0994 24.2121C38.5974 24.5455 40.6695 28.216 43.258 28.4314C43.258 32.9142 43.8144 37.6303 41.8229 40.9043C40.0043 43.894 36.9141 46.0892 33.0972 46.0892C29.5325 46.0892 27.0476 45.248 24.7738 42.6896C23.1834 40.9 21.9983 38.4773 21.9983 35.1507V35.1509ZM53.1065 34.6821C53.4493 34.8465 53.7216 34.9548 54.2008 34.9946V36.0885C53.6102 35.7762 53.2098 35.4867 53.1065 34.6821ZM80.3066 36.2448V34.9946C81.1277 34.9763 80.9036 34.8343 81.5572 34.6821C81.2133 35.3989 81.6374 35.5409 80.3066 36.2448ZM56.5455 33.5882C56.5455 31.8065 56.7018 30.4699 56.7018 28.5876C58.8478 28.5876 60.9455 29.1484 63.9481 27.7055C64.8872 27.2541 66.8832 25.9313 67.1754 24.8374C67.8291 25.275 69.5786 28.7441 75.4605 28.7441C76.4671 28.7441 76.8684 28.5879 77.9617 28.5879C77.9617 34.396 78.6568 38.7396 75.1859 42.6898C73.0504 45.1203 70.0616 46.0894 66.7065 46.0894C62.1735 46.0894 58.3172 42.5919 57.1875 38.7283C56.7915 37.3742 56.5455 35.2967 56.5455 33.5882ZM18.4027 31.5567V31.2442C18.4027 30.4037 18.9626 29.9988 19.6534 29.8378V32.9631C18.9626 32.8023 18.4027 32.3974 18.4027 31.5567ZM45.7592 32.9631V29.8378C46.3122 30.1304 47.0098 30.5727 47.0098 31.4004C47.0098 32.2282 46.3122 32.6705 45.7592 32.9631ZM80.3066 32.4943V29.369C80.9974 29.5298 81.5572 29.9347 81.5572 30.7754V30.9316C81.5572 31.8208 80.8941 32.1836 80.3066 32.4943ZM52.9502 31.0879C52.9502 30.192 53.4896 29.5588 54.2008 29.369V32.4943C53.8191 32.2925 53.7649 32.3421 53.4561 31.9886C53.3532 31.8708 52.9502 31.1912 52.9502 31.0879ZM21.5293 26.5561C20.1398 26.5561 20.6609 27.2016 19.028 27.3375C19.028 23.7488 19.4574 21.8192 21.0086 19.0039C21.428 18.2427 21.9765 17.6557 22.4656 17.0224C24.0695 14.9463 28.1528 12.492 31.8464 12.492C35.0556 12.492 35.9068 12.5038 38.9336 14.0019C40.6244 14.839 41.5986 15.7055 42.8313 16.9815C43.8278 18.0128 44.84 19.8047 45.4048 21.2847C46.107 23.1244 46.2282 24.8266 46.2282 27.3373C44.7845 27.2172 45.519 26.774 43.9528 26.1739C39.5548 24.4887 41.1269 21.3991 37.9431 21.3991C37.1782 21.3991 36.6565 22.0656 36.3121 22.5813C35.0395 24.4862 34.1249 25.393 31.4263 26.4483C29.9974 27.0071 28.2481 27.227 26.5116 27.2716C24.618 27.3203 22.2425 26.5557 21.529 26.5557L21.5293 26.5561Z" fill="black"/>
</svg>
