<svg width="100" height="100" viewBox="0 0 100 100" fill="none" xmlns="http://www.w3.org/2000/svg">
<path fill-rule="evenodd" clip-rule="evenodd" d="M27.6564 28.594C29.6767 26.2696 35.6539 27.5196 35.6217 20.6218C35.5917 14.1375 38.702 17.9689 42.4999 17.9689C47.7401 17.9689 48.4222 9.72139 51.8995 14.038C54.4174 17.1639 55.4225 18.7265 60.0011 17.5014C61.5294 17.0925 63.6378 16.069 64.1305 18.0567C64.8987 21.1556 63.0607 24.5404 68.681 26.7873C69.6867 27.1894 72.0309 27.7437 72.0309 28.9061C72.0309 30.8444 69.0621 32.653 69.0621 35.9372C69.0621 40.6876 75.8882 42.4403 68.9629 44.7442C66.1519 45.6793 64.3845 47.396 64.3693 50.6194C64.3546 53.7207 64.1656 54.6871 62.4997 54.6871C60.6421 54.6871 60.2675 53.7496 57.1872 53.7496C53.2906 53.7496 52.0284 58.9059 49.9996 58.9059C47.9708 58.9059 46.7085 53.7496 42.812 53.7496C38.1058 53.7496 35.5915 57.3029 35.628 50.7775C35.6463 47.5173 33.9754 45.7777 31.153 44.7837C30.1214 44.4203 27.9685 43.8364 27.9685 42.6559C27.9685 39.9371 33.4394 37.9031 29.5325 32.0292C28.9807 31.1997 27.7984 29.7035 27.6558 28.5934L27.6564 28.594ZM42.6564 15.469C40.0324 15.469 34.8518 12.3513 33.5564 17.4627C33.1341 19.1281 33.4855 21.6468 32.7156 23.0282C31.6341 24.9687 25.3127 25.1538 25.3127 28.2816C25.3127 32.4349 28.4377 32.514 28.4377 36.2502C28.4377 37.8911 22.9837 42.6278 27.1831 45.6299C30.4518 47.9665 33.2439 46.3246 33.2873 51.5569C33.3001 53.0915 33.3505 53.7826 33.8104 54.9399C34.1499 55.7937 34.9492 56.6759 35.875 56.9379C38.4714 57.6718 40.9135 56.0941 42.5001 56.0941C45.8427 56.0941 48.1376 65.8231 53.8604 59.0169C54.6832 58.0384 55.8606 56.0941 57.3439 56.0941C59.6922 56.0941 63.0285 58.5395 65.5151 55.984C67.801 53.6346 65.5524 49.8602 68.0093 47.8534C69.2726 46.8215 73.5009 46.4726 74.3073 43.6752C75.2557 40.3845 71.5626 38.6781 71.5626 35.6254C71.5626 33.2094 78.0561 28.4004 71.4612 25.2579C70.073 24.5966 67.9793 24.2746 67.2847 23.0282C65.6536 20.1016 68.4354 14.5315 62.1875 14.5315C59.858 14.5315 57.3802 16.6906 55.3464 14.4977L53.9555 12.7635C49.5656 7.30871 46.6723 12.1924 44.728 14.4156C44.2574 14.9535 43.6097 15.469 42.6564 15.469Z" fill="black"/>
<path fill-rule="evenodd" clip-rule="evenodd" d="M37.1876 75.6251C37.1876 74.7451 37.9035 74.2189 38.9065 74.2189H61.0938C63.3854 74.2189 63.3854 77.0315 61.0938 77.0315H38.9065C37.9035 77.0315 37.1876 76.5054 37.1876 75.6254V75.6251ZM73.4679 90H67.1876C66.6625 90 66.3106 89.3089 66.2912 88.8888C66.2634 88.2847 66.6192 88.0385 66.8749 87.6563H72.6561C72.432 87.1896 72.5576 87.2043 72.4301 86.6321C72.0086 84.7428 70.8551 82.9648 69.4141 81.6794C67.6173 80.0767 65.0827 79.375 62.4999 79.375H37.5001C28.4639 79.375 27.779 86.7496 27.344 87.6563L61.5531 87.6656C63.019 87.9169 62.5452 90 61.5624 90H26.0937C23.2321 90 25.591 83.6802 27.8584 80.9834C29.0917 79.5167 32.4326 77.1875 34.9999 77.1875C34.92 76.2278 34.8437 76.7336 34.8437 75.1562C34.8437 73.4815 36.6154 71.8749 38.2811 71.8749H61.7186C62.5872 71.8749 63.5585 72.3986 64.0312 72.8436C65.6228 74.3419 65.1157 75.7944 64.9998 77.1875C66.4652 77.1875 68.0652 78.0086 69.118 78.538C73.9968 80.9916 76.1025 88.2263 74.807 89.6505C74.6443 89.8293 74.1448 89.9373 73.4679 89.9997V90Z" fill="black"/>
<path fill-rule="evenodd" clip-rule="evenodd" d="M43.2815 20.1564C40.1933 20.1564 39.9828 19.6875 38.9065 19.6875C37.7539 19.6875 37.9283 21.9238 37.7514 23.0637C37.6601 23.6514 36.7089 25.9373 38.5941 25.9373C39.9405 25.9373 40.1976 23.8834 40.3127 22.4999C41.859 22.5342 43.417 23.1839 46.0311 22.1245C48.6185 21.076 49.1174 19.9659 50.0001 19.3748C50.9172 19.9891 50.7613 20.4258 52.8397 21.6916C55.8025 23.496 58.074 22.5359 59.6876 22.4999C60.4084 25.5944 60.4218 26.8566 63.3271 29.3293C64.0195 29.9187 64.8276 30.2423 65.625 30.625C65.4816 31.24 64.9423 32.1803 64.7079 32.8329C63.1801 37.0825 65.5454 40.1361 65.625 41.0938C64.3355 41.201 62.3208 43.087 61.5815 44.0815C60.6208 45.3737 59.8575 47.1773 59.6876 49.2187C59.059 48.9172 57.7215 48.9063 56.875 48.9063C55.1782 48.9063 54.0412 49.4657 52.8621 50.0496C52.0925 50.4308 51.3199 51.0534 50.6991 51.6368C50.2943 52.0174 50.4977 52.0106 49.9999 52.344L48.7104 51.1333C46.4278 49.111 42.1746 48.3253 40.3124 49.219C40.1425 47.1773 39.3789 45.374 38.4185 44.0817C37.6121 42.997 35.6081 41.1966 34.375 41.0941C34.4546 40.1364 36.8199 37.0828 35.2921 32.8332C35.0574 32.1806 34.5182 31.2403 34.375 30.6253C36.4213 30.1485 36.4835 27.9692 34.6875 27.9692C34.2734 27.9692 33.2251 28.4948 32.7442 28.6821C30.2839 29.6392 31.3035 30.275 32.4501 32.5505C35.7264 39.0519 28.3589 41.2206 32.678 42.9477C35.5593 44.0997 37.3409 45.9282 37.7702 49.1053C37.8561 49.741 37.9123 51.1521 38.1805 51.5095C39.3402 53.0542 43.9131 48.9019 48.3911 54.2654C50.7343 57.0718 50.4421 54.8995 52.9646 52.9656C57.3431 49.6085 60.4845 52.8781 61.744 51.5929C62.1052 51.2244 62.1346 49.9313 62.1979 49.2302C62.751 43.0837 68.7497 43.4146 68.7497 41.5633C68.7497 40.4946 65.2359 37.3044 67.445 32.7585C68.3419 30.9129 69.6406 29.7112 67.8165 28.9029C64.9205 27.6197 62.9604 26.4646 62.2968 23.0165C62.1106 22.0492 62.2464 19.6884 61.0938 19.6884C59.8057 19.6884 55.9222 21.3175 52.9294 18.6339C51.4338 17.2929 50.9513 16.0944 50.0001 16.0944C49.0967 16.0944 48.9786 16.6923 48.477 17.2274C47.2143 18.5747 45.6783 20.157 43.2815 20.157V20.1564Z" fill="black"/>
<path fill-rule="evenodd" clip-rule="evenodd" d="M63.125 69.0626C63.125 69.6256 64.2256 71.0072 65.357 69.7332C65.6697 69.381 65.9093 68.9511 66.1871 68.531L70.3124 62.5001C72.5042 59.2107 74.7181 56.0481 76.9375 52.7191C78.0604 51.0349 79.0912 49.569 80.2187 47.8752L89.2481 34.5608C89.7909 33.7699 90 33.9068 90 32.8125C90 32.0816 89.199 31.8749 88.5938 31.8749C87.9038 31.8749 85.028 36.4547 84.4042 37.3731L77.281 47.906C76.7161 48.7533 76.2391 49.3858 75.6865 50.2178C74.6044 51.8473 73.5982 53.2739 72.5309 54.875L66.2187 64.1876C65.6634 65.0208 65.1959 65.6729 64.6236 66.4986C64.3186 66.9386 63.125 68.6169 63.125 69.0623V69.0626Z" fill="black"/>
<path fill-rule="evenodd" clip-rule="evenodd" d="M10.0003 32.8127C10.0003 33.8566 10.5935 34.3282 11.5002 35.6878C12.0585 36.5253 12.4874 37.2218 13.0814 38.0127L33.6267 68.2486C34.0321 68.8541 34.7935 70.3126 35.6253 70.3126C35.9712 70.3126 37.5254 69.7153 36.3793 67.9969L13.3753 34.1251C12.3309 32.5587 12.1559 31.8749 10.9381 31.8749C10.5619 31.8749 10.0005 32.4363 10.0005 32.8125L10.0003 32.8127Z" fill="black"/>
<path fill-rule="evenodd" clip-rule="evenodd" d="M43.9063 44.844C45.2877 44.844 45.084 44.5623 46.4062 42.8127L56.4113 29.0672C56.7076 28.6572 57.0514 28.3467 56.9312 27.7268C56.7433 26.7584 55.4836 26.1769 54.5897 27.4024L52.0322 30.9388C51.4835 31.7201 50.9911 32.3975 50.4028 33.2157L43.6811 42.4316C42.3467 44.16 43.5263 44.8442 43.9063 44.8442V44.844Z" fill="black"/>
<path fill-rule="evenodd" clip-rule="evenodd" d="M54.9999 42.5003C53.5924 42.5003 53.3953 40.3128 54.9999 40.3128C56.691 40.3128 56.2082 42.5003 54.9999 42.5003ZM51.4063 41.2503C51.4063 47.0353 60.2443 45.326 58.2708 40.0113C56.9742 36.5196 51.4063 37.4198 51.4063 41.2503Z" fill="black"/>
<path fill-rule="evenodd" clip-rule="evenodd" d="M43.9063 30.3128C43.9063 28.9053 46.0938 28.7082 46.0938 30.3128C46.0938 32.0039 43.9063 31.5211 43.9063 30.3128ZM48.5937 30.4691C48.5937 26.0281 42.9701 25.5758 41.7292 28.9176C40.6003 31.9573 43.4846 34.6644 46.395 33.5835C47.4124 33.2056 48.5934 31.8815 48.5934 30.4691H48.5937Z" fill="black"/>
<path fill-rule="evenodd" clip-rule="evenodd" d="M10.0003 10.9378C10.0003 11.9492 12.6084 16.9992 13.4075 18.3119C13.8085 18.9703 14.1828 20.3129 15.0001 20.3129C17.9291 20.3129 15.2681 16.6298 14.1667 14.4276C13.6335 13.3611 12.2352 10.0005 11.4062 10.0005C10.801 10.0005 10 10.2069 10 10.9381L10.0003 10.9378Z" fill="black"/>
<path fill-rule="evenodd" clip-rule="evenodd" d="M83.5938 19.0627C83.5938 20.2881 85.1869 20.9479 85.944 19.5381C86.8862 17.7841 89.9997 12.1859 89.9997 10.9378C89.9997 10.207 89.1988 10.0003 88.5936 10.0003C87.8938 10.0003 87.3725 11.3473 87.083 11.9274L83.5935 19.063L83.5938 19.0627Z" fill="black"/>
<path fill-rule="evenodd" clip-rule="evenodd" d="M70.9375 18.9065C70.9375 20.3134 72.6056 20.6174 73.237 19.4871L74.4341 15.9965C75.2279 13.6157 77.1243 10 74.6876 10C73.4286 10 73.1266 12.1027 72.4802 14.0427C72.2417 14.7583 70.9377 18.3612 70.9377 18.9065H70.9375Z" fill="black"/>
<path fill-rule="evenodd" clip-rule="evenodd" d="M24.2189 10.9378C24.2189 11.9784 25.9909 16.7918 26.5037 18.3405C26.7965 19.2249 26.8489 20.1564 27.9691 20.1564C30.3629 20.1564 28.5432 16.7983 27.7155 14.3161C27.2736 12.9906 26.5945 10 25.6254 10C25.0202 10 24.2192 10.2064 24.2192 10.9375L24.2189 10.9378Z" fill="black"/>
<path fill-rule="evenodd" clip-rule="evenodd" d="M40.9378 61.4064C40.9378 61.4077 42.3399 67.1875 43.5942 67.1875C46.2252 67.1875 44.3619 63.9823 43.3545 61.3336C43.0481 60.5283 42.9489 60.3126 42.0318 60.3126C41.3023 60.3126 40.938 60.6771 40.938 61.4064H40.9378Z" fill="black"/>
<path fill-rule="evenodd" clip-rule="evenodd" d="M55.1564 66.0941C55.1564 67.25 56.926 67.7442 57.5247 66.2748C57.9082 65.3332 59.219 61.8955 59.219 61.2504C59.219 60.4904 57.5094 59.5498 56.8227 61.1981C56.4386 62.1201 55.1564 65.4046 55.1564 66.0943V66.0941Z" fill="black"/>
<path fill-rule="evenodd" clip-rule="evenodd" d="M78.7499 28.594C78.7499 28.6082 79.6912 32.0693 81.9275 27.5529C82.4043 26.5897 84.5471 23.4377 82.0311 23.4377C80.906 23.4377 80.5467 24.8439 80.104 25.7293C79.8788 26.1797 78.7499 28.29 78.7499 28.594Z" fill="black"/>
<path fill-rule="evenodd" clip-rule="evenodd" d="M16.7189 24.5314C16.7189 25.1121 18.1237 27.7164 18.4443 28.2747C18.7388 28.7878 19.0779 29.6127 19.7575 29.7441C20.4045 29.8693 21.2501 29.342 21.2501 28.5937C21.2501 28.29 20.1212 26.1794 19.896 25.729C19.4533 24.8435 19.094 23.4374 17.9689 23.4374C17.3002 23.4374 16.7189 23.9191 16.7189 24.5311V24.5314Z" fill="black"/>
</svg>
