<svg width="100" height="100" viewBox="0 0 100 100" fill="none" xmlns="http://www.w3.org/2000/svg">
<path fill-rule="evenodd" clip-rule="evenodd" d="M10 53.4373C10 57.7475 10.6151 59.9769 13.2925 63.648C14.1419 64.8126 15.084 65.6395 16.1939 66.6306C16.8343 67.2024 17.2132 67.436 17.9213 67.9295C18.4094 68.2698 19.6265 68.9708 19.8876 69.2186C18.7984 70.2522 11.1236 73.178 11.1236 80.4686V88.9061C11.1236 89.4806 11.853 89.9118 12.693 89.9998H13.3182C14.2315 89.9022 15.0993 89.3594 15.1734 88.1281C15.4918 82.8383 13.6378 78.1038 18.7286 73.7252C22.612 70.3851 26.7026 69.9834 32.4648 69.6822C34.8432 69.5579 33.8639 68.8895 35.8766 69.9758C36.3813 70.2482 36.7471 70.4282 37.2894 70.7126C37.8975 71.0314 38.0573 71.1563 38.6657 71.4745L46.9058 75.9012C50.6594 78.0583 50.9972 77.144 55.2384 74.7359C56.8438 73.8244 59.8876 72.7834 59.8876 71.4061C59.8876 69.67 57.499 70.0371 55.8391 70.9348L50 74.0623L38.5394 67.9686C39.7989 66.6607 42.7125 65.2005 42.809 62.1873C46.8235 62.8376 51.0131 63.2465 55.3997 62.5043C62.8158 61.2494 68.3729 58.4265 72.1764 54.013C73.7242 52.217 75.618 49.0222 75.618 46.2498V35.3123C75.618 34.0117 73.0518 34.4719 71.6609 34.3178C62.9938 33.357 67.2115 27.4998 63.0337 27.4998C62.0146 27.4998 57.413 29.8002 56.3643 30.2062C50.1769 32.6016 43.4794 34.2463 36.356 35.0442C34.8688 35.2108 33.1461 35.2379 33.1461 36.5623C33.1461 38.8171 38.3764 37.6308 40.1124 37.3436L48.0077 35.802C53.0657 34.6378 57.049 32.9556 61.6854 31.2498C63.1113 33.316 62.5004 33.2897 65.2213 35.1974C66.6578 36.2047 68.9896 37.0311 71.7978 37.0311C71.7978 45.1271 73.112 52.0582 62.7147 57.2779C55.348 60.9762 45.2431 61.0101 37.8172 57.5331C36.0965 56.7274 34.9533 55.9071 33.5347 54.8858C32.1886 53.9166 31.2987 52.7364 30.3729 51.4593C27.477 47.4646 28.2205 41.0826 28.2149 36.0847C28.2138 35.0391 27.8983 34.5527 26.6825 34.3444C25.8888 34.2084 24.382 34.6042 24.382 35.3123V46.2498C24.382 51.5843 29.7262 57.2772 36.021 60.032C36.8294 60.3859 38.0424 60.9402 38.9888 61.0935C38.9888 63.6326 36.994 65.6046 34.4978 66.4084C32.462 67.0641 29.031 66.9054 26.5765 67.3069C22.8737 67.9125 24.1848 68.3494 20.1666 65.5871C13.9008 61.2798 12.1622 53.6768 15.8452 47.9703C16.407 47.0998 17.0886 46.2443 17.8215 45.4382C27.7178 34.5539 16.1143 26.0054 28.9325 17.07C35.9733 12.162 44.2605 12.6561 54.2697 12.6561C62.1996 12.6561 69.1677 14.7128 73.595 19.0626C76.5512 21.9671 77.641 24.419 77.6405 28.4373C77.6396 34.5235 77.1346 40.1253 82.0012 45.249C86.2007 49.6704 87.3007 54.888 84.6939 60.0604C84.2728 60.8957 83.8125 61.6594 83.2489 62.3369C82.8421 62.826 81.6854 63.8846 81.6854 64.531C81.6854 65.7825 83.7111 66.3404 85.0142 65.4403C85.8967 64.8307 86.7535 63.5734 87.38 62.7093C89.6002 59.6466 90 56.9568 90 53.4373C90 50.8193 88.8335 48.6424 87.724 46.7385C85.2014 42.4096 81.6791 41.8318 81.6854 34.3748C81.6901 28.7381 82.3743 24.7301 78.84 19.7907C75.1013 14.5657 66.512 9.99979 56.9663 9.99979H43.0338C36.4454 9.99979 29.6638 12.627 26.3473 14.96C21.8482 18.1248 19.4437 21.4025 18.4367 26.0222C17.2949 31.2604 19.664 35.8959 16.5521 41.2743C15.979 42.2648 15.3171 43.0783 14.538 43.9364C11.9682 46.7672 10 49.6595 10 53.4373L10 53.4373Z" fill="black"/>
<path fill-rule="evenodd" clip-rule="evenodd" d="M58.5393 65C58.5393 66.6299 63.6511 69.5735 67.7501 69.6894C72.3056 69.8181 76.5119 70.3644 79.7225 72.6148C85.8373 76.901 84.8315 79.7397 84.8314 85.7812C84.8314 88.2543 84.2435 90 87.3034 90C87.9293 90 88.8764 89.3414 88.8764 88.9062V80.4688C88.8764 73.9723 81.5267 68.2897 72.6711 67.2053C68.8879 66.742 65.4487 67.5199 62.4076 64.4978C60.7757 62.8762 58.5393 63.9915 58.5393 65V65Z" fill="black"/>
</svg>
