<svg width="24" height="24" viewBox="0 0 24 24" fill="none" xmlns="http://www.w3.org/2000/svg">
<path fill-rule="evenodd" clip-rule="evenodd" d="M12.4747 6.3645V10.1611C12.4747 10.8928 13.1073 11.5255 13.839 11.5255H17.6356C18.3626 11.5255 19 10.8837 19 10.2501V6.27553C19 5.64853 18.3913 5.00012 17.6949 5.00012H13.7501C13.5773 5.00012 13.3612 5.07576 13.235 5.13758C12.8347 5.33354 12.4747 5.82062 12.4747 6.36456V6.3645Z" fill="#A9C9FE"/>
<path fill-rule="evenodd" clip-rule="evenodd" d="M12.4747 13.839V17.6356C12.4747 18.3706 13.1299 19 13.7501 19H17.6949C17.9098 19 18.052 18.9471 18.1991 18.8813C18.6277 18.6893 19 18.2216 19 17.7245V13.75C19 13.1176 18.3632 12.4746 17.6356 12.4746H13.839C13.1073 12.4746 12.4747 13.1073 12.4747 13.839Z" fill="#2878FD"/>
<path fill-rule="evenodd" clip-rule="evenodd" d="M5.00012 13.8686V17.6652C5.00012 18.3155 5.68456 19 6.33484 19H10.1314C10.8774 19 11.5255 18.3231 11.5255 17.5762V13.9576C11.5255 13.1241 10.8759 12.4745 10.0424 12.4745H6.42375C5.67684 12.4745 5 13.1226 5 13.8685L5.00012 13.8686Z" fill="#A9C9FE"/>
<path fill-rule="evenodd" clip-rule="evenodd" d="M5.00012 6.33484V10.1314C5.00012 10.8776 5.68205 11.5255 6.42388 11.5255H10.0425C10.876 11.5255 11.5256 10.8759 11.5256 10.0424V6.42375C11.5256 5.67684 10.8775 5 10.1315 5H6.33497C5.68468 5 5.00024 5.68444 5.00024 6.33473L5.00012 6.33484Z" fill="#2878FD"/>
</svg>
