<svg width="24" height="24" viewBox="0 0 24 24" fill="none" xmlns="http://www.w3.org/2000/svg">
<path fill-rule="evenodd" clip-rule="evenodd" d="M17.7244 18.0966H13.6793C13.4852 18.0966 13.3258 17.9372 13.3258 17.7431V13.3437H17.7244C18.0163 13.3437 18.1171 13.6346 18.1171 13.933V17.5074C18.1171 17.8057 18.0162 18.0966 17.7244 18.0966ZM12.4225 17.7431C12.4225 18.4263 13.0724 19 13.6007 19H17.7637C18.3855 19 18.9811 18.4044 18.9811 17.7824V13.6187C18.9811 13.0903 18.4074 12.4403 17.7244 12.4403H12.4225V17.7431Z" fill="#2878FD"/>
<path fill-rule="evenodd" clip-rule="evenodd" d="M8.02404 5.91992C8.54386 5.91992 8.85189 5.90462 9.33443 6.14123C9.80427 6.37159 10.2028 6.77327 10.4307 7.24441C10.9866 8.39341 10.525 9.84921 9.32093 10.4379C8.45459 10.8616 7.49869 10.7226 6.73304 10.1178L6.31887 9.66791C5.66274 8.72886 5.77054 7.5902 6.48649 6.6995C6.80177 6.30723 7.52448 5.91985 8.02404 5.91985V5.91992ZM5 8.04101C5 9.14706 5.21043 9.88067 5.95195 10.6241C7.05874 11.7336 8.92608 11.9087 10.1734 10.9763L10.6075 10.6248C10.8418 10.4057 11.1053 9.96651 11.2446 9.69082C11.6883 8.81255 11.6419 7.81417 11.2679 6.91758C10.8517 5.91992 9.61431 5.01636 8.5346 5.01636C7.8427 5.01636 7.48275 5.01765 6.845 5.32968C6.18227 5.654 5.65541 6.17377 5.32677 6.83576C5.18522 7.12093 5.00007 7.63725 5.00007 8.04087L5 8.04101Z" fill="#2878FD"/>
<path fill-rule="evenodd" clip-rule="evenodd" d="M7.19929 16.604C7.19929 16.0175 7.14442 13.7871 7.23857 13.383C7.64011 13.2894 10.0539 13.3437 10.6553 13.3437C10.6553 13.9452 10.7096 16.3594 10.616 16.7611C10.212 16.8552 7.98203 16.8004 7.39564 16.8004C7.30407 16.8004 7.19929 16.6956 7.19929 16.604ZM6.29603 13.5402V16.6433C6.29603 16.9083 6.48139 17.2348 6.62316 17.3766C6.76493 17.5184 7.09142 17.7038 7.35635 17.7038H10.4589C11.0527 17.7038 11.5585 17.1979 11.5585 16.604V12.4403H7.31707C6.84264 12.4403 6.29596 12.9334 6.29596 13.5401L6.29603 13.5402Z" fill="#2878FD"/>
<path fill-rule="evenodd" clip-rule="evenodd" d="M15.5644 10.6731L13.3258 10.6728L13.3257 8.43387C13.3236 7.19421 13.1627 7.19773 14.4647 7.19773C16.9517 7.19773 16.7991 6.97218 16.7991 8.39458C16.7991 8.78735 16.7991 9.18019 16.7991 9.57296C16.7991 10.8527 16.7695 10.6725 15.5644 10.6731ZM17.6729 10.2407C17.6729 9.58604 17.6729 8.93137 17.6729 8.2767C17.6729 6.65936 17.34 6.32599 15.7214 6.32599C15.0669 6.32599 14.4123 6.32607 13.7578 6.32599C13.3034 6.26652 12.8369 6.60362 12.6646 6.86911C12.3603 7.33773 12.4225 7.55409 12.4225 8.27678C12.4225 9.37658 12.4225 10.4765 12.4225 11.5763C13.5221 11.5763 14.6218 11.5763 15.7214 11.5763C16.4281 11.5763 16.6788 11.6395 17.1286 11.3339C17.3968 11.1517 17.7289 10.7055 17.6728 10.2407H17.6729Z" fill="#2878FD"/>
<path fill-rule="evenodd" clip-rule="evenodd" d="M13.3257 8.43371L13.6394 9.2199C13.7679 9.46815 13.8285 9.51735 13.9763 9.70785L14.4191 10.1291C14.6855 10.3433 15.009 10.487 15.3341 10.5887C15.394 10.6075 15.4092 10.6098 15.4541 10.6258L15.5377 10.6603C15.5436 10.6628 15.556 10.6677 15.5644 10.673C16.7695 10.6723 16.7991 10.8526 16.7991 9.57288C16.7991 9.18011 16.7991 8.78726 16.7991 8.39449C16.7991 6.9721 16.9517 7.19765 14.4647 7.19765C13.1627 7.19765 13.3236 7.19413 13.3257 8.43378V8.43371Z" fill="#A9C9FE"/>
<path fill-rule="evenodd" clip-rule="evenodd" d="M13.7578 6.32587C14.4124 6.32602 15.0669 6.32587 15.7215 6.32587C17.3401 6.32587 17.6729 6.65924 17.6729 8.27658C17.6729 8.93125 17.6729 9.58592 17.6729 10.2406C18.0046 10.0924 18.3027 9.74596 18.5021 9.44728C19.0397 8.64199 19.1425 7.70883 18.8077 6.83961C18.5826 6.25534 18.2361 5.83168 17.7305 5.48172C16.8133 4.84688 15.6059 4.83438 14.5696 5.47475C14.2898 5.64765 13.8889 6.02864 13.7578 6.32587Z" fill="#A9C9FE"/>
<path fill-rule="evenodd" clip-rule="evenodd" d="M14.6218 16.3289C14.6218 17.0033 15.2667 16.8396 16.2713 16.8396C17.0017 16.8396 16.9331 15.9362 16.3891 15.9362H15.0145C14.8171 15.9362 14.6218 16.1315 14.6218 16.3289Z" fill="#A9C9FE"/>
</svg>
