<svg width="24" height="24" viewBox="0 0 24 24" fill="none" xmlns="http://www.w3.org/2000/svg">
<path fill-rule="evenodd" clip-rule="evenodd" d="M5.92968 17.4687V13.9961C5.92968 13.7088 6.06229 13.4219 6.31249 13.4219H10.168C10.4014 13.4219 10.5781 13.5986 10.5781 13.832V17.6328C10.5781 17.9554 10.2985 18.0703 10.0039 18.0703H6.53124C6.11798 18.0703 5.92968 17.882 5.92968 17.4687L5.92968 17.4687ZM4.99999 13.8047V17.7148C4.99999 18.3416 5.65834 19 6.28515 19H10.1953C10.8953 19 11.5352 18.3601 11.5352 17.6602V13.8047C11.5352 13.108 10.892 12.4648 10.1953 12.4648H6.33984C5.63984 12.4648 4.99999 13.1047 4.99999 13.8047Z" fill="black"/>
<path fill-rule="evenodd" clip-rule="evenodd" d="M5.92969 10.0039V6.53124C5.92969 6.10865 6.10865 5.92968 6.53125 5.92968H10.0039C10.1692 5.92968 10.2951 5.95296 10.3999 6.02585C10.5021 6.0969 10.5781 6.20654 10.5781 6.36718V10.168C10.5781 10.4014 10.4014 10.5781 10.168 10.5781H6.36719C6.21203 10.5781 6.10451 10.5054 6.03727 10.4159C5.963 10.3169 5.92969 10.1823 5.92969 10.0039L5.92969 10.0039ZM5 6.28516V10.1953C5 10.8953 5.63985 11.5352 6.33985 11.5352H10.1953C10.892 11.5352 11.5352 10.892 11.5352 10.1953V6.33985C11.5352 5.63985 10.8953 5 10.1953 5H6.28516C5.65693 5 5 5.65693 5 6.28516Z" fill="black"/>
<path fill-rule="evenodd" clip-rule="evenodd" d="M17.6328 10.5781H13.832C13.5986 10.5781 13.4219 10.4014 13.4219 10.168V6.3125C13.4219 6.06575 13.7052 5.92969 13.9961 5.92969H17.4688C17.882 5.92969 18.0703 6.118 18.0703 6.53125V10.0039C18.0703 10.2936 17.9622 10.5781 17.6328 10.5781L17.6328 10.5781ZM12.4648 6.33985V10.1953C12.4648 10.892 13.108 11.5352 13.8047 11.5352H17.6602C18.3602 11.5352 19 10.8953 19 10.1953V6.33985C19 5.63372 18.3371 5 17.7148 5H13.8047C13.1047 5 12.4648 5.63985 12.4648 6.33985Z" fill="black"/>
<path fill-rule="evenodd" clip-rule="evenodd" d="M14.4336 18.0703C14.178 18.0703 13.7993 18.1029 13.6164 17.9851C13.5349 17.9327 13.4219 17.8132 13.4219 17.6875V13.832C13.4219 13.5986 13.5986 13.4219 13.832 13.4219H17.6875C17.9342 13.4219 18.0703 13.7052 18.0703 13.9961C18.0703 15.2383 18.013 16.2069 17.0933 17.1206C17.0156 17.1978 16.9444 17.2509 16.8588 17.3237C16.1849 17.8967 15.3841 18.0703 14.4336 18.0703ZM19 13.8047V14.8815C18.9818 15.4619 18.9015 16.0032 18.5992 16.6031C18.284 17.2282 18.0305 17.5501 17.5025 18.022C17.3242 18.1813 17.114 18.3118 16.9065 18.4377C16.1643 18.8881 15.5174 18.9833 14.7901 19H13.8047C13.1047 19 12.4648 18.3601 12.4648 17.6602V13.8047C12.4648 13.108 13.108 12.4648 13.8047 12.4648H17.6602C18.3601 12.4648 19 13.1047 19 13.8047V13.8047Z" fill="black"/>
</svg>
